<svg width="216" height="221" viewBox="0 0 216 221" fill="none" xmlns="http://www.w3.org/2000/svg">
<g clip-path="url(#clip0_511_83)">
<path d="M32.0113 29.7564C31.6434 19.2179 39.8749 9.5 51.0013 9.5H165.013C176.139 9.5 184.371 19.2179 184.003 29.7564C183.649 39.8796 184.108 52.9931 187.417 63.6854C190.736 74.4108 196.333 81.1902 205.5 82.0613V91.9387C196.333 92.8098 190.736 99.5892 187.417 110.315C184.108 121.007 183.649 134.12 184.003 144.244C184.371 154.782 176.139 164.5 165.013 164.5H51.0013C39.8749 164.5 31.6434 154.782 32.0117 144.244C32.3648 134.12 31.9058 121.007 28.5969 110.315C25.2781 99.5892 19.6673 92.8098 10.5 91.9387V82.0613C19.6669 81.1902 25.2781 74.4108 28.5969 63.6854C31.9058 52.9931 32.3648 39.8796 32.0113 29.7564Z" fill="url(#paint0_linear_511_83)"/>
<g filter="url(#filter0_d_511_83)">
<path d="M112.229 128.203C130.242 128.203 141.097 119.405 141.097 104.894C141.097 93.9253 133.352 85.9842 121.852 84.7271V84.2701C130.301 82.8991 136.931 75.0723 136.931 66.3315C136.931 53.8772 127.074 45.7644 112.053 45.7644H78.2554V128.203H112.229ZM91.3988 56.2193H108.884C118.39 56.2193 123.788 60.4469 123.788 68.1023C123.788 76.2721 117.51 80.8423 106.127 80.8423H91.3988V56.2193ZM91.3988 117.749V90.6118H108.767C121.206 90.6118 127.66 95.1821 127.66 104.095C127.66 113.007 121.382 117.749 109.53 117.749H91.3988Z" fill="url(#paint1_linear_511_83)"/>
<path d="M112.229 128.203C130.242 128.203 141.097 119.405 141.097 104.894C141.097 93.9253 133.352 85.9842 121.852 84.7271V84.2701C130.301 82.8991 136.931 75.0723 136.931 66.3315C136.931 53.8772 127.074 45.7644 112.053 45.7644H78.2554V128.203H112.229ZM91.3988 56.2193H108.884C118.39 56.2193 123.788 60.4469 123.788 68.1023C123.788 76.2721 117.51 80.8423 106.127 80.8423H91.3988V56.2193ZM91.3988 117.749V90.6118H108.767C121.206 90.6118 127.66 95.1821 127.66 104.095C127.66 113.007 121.382 117.749 109.53 117.749H91.3988Z" stroke="white"/>
</g>
</g>
<path d="M16.5234 201.5V175.906H24.1348C25.1895 175.918 26.2207 176.059 27.2285 176.328C28.2363 176.586 29.1328 176.99 29.918 177.541C30.7031 178.092 31.3301 178.795 31.7988 179.65C32.2676 180.506 32.4961 181.531 32.4844 182.727C32.4727 183.395 32.3613 184.004 32.1504 184.555C31.9512 185.105 31.6758 185.598 31.3242 186.031C30.9609 186.477 30.5566 186.852 30.1113 187.156C29.6777 187.461 29.1504 187.748 28.5293 188.018V188.07C29.1738 188.223 29.7949 188.498 30.3926 188.896C30.9902 189.295 31.4824 189.734 31.8691 190.215C32.2793 190.742 32.5957 191.334 32.8184 191.99C33.0527 192.646 33.1699 193.355 33.1699 194.117C33.1816 195.312 32.9531 196.367 32.4844 197.281C32.0156 198.195 31.3887 198.957 30.6035 199.566C29.8184 200.188 28.9102 200.662 27.8789 200.99C26.8594 201.318 25.8047 201.488 24.7148 201.5H16.5234ZM19.793 189.529V198.74H24.8027C25.4824 198.729 26.127 198.617 26.7363 198.406C27.3457 198.184 27.8848 197.879 28.3535 197.492C28.8223 197.105 29.1914 196.631 29.4609 196.068C29.7422 195.506 29.8828 194.867 29.8828 194.152C29.8945 193.426 29.7715 192.781 29.5137 192.219C29.2676 191.656 28.9219 191.176 28.4766 190.777C28.0312 190.391 27.5098 190.092 26.9121 189.881C26.3145 189.67 25.6699 189.553 24.9785 189.529H19.793ZM19.793 186.822H24.3281C24.9375 186.811 25.5352 186.717 26.1211 186.541C26.707 186.354 27.2285 186.084 27.6855 185.732C28.1426 185.393 28.5117 184.971 28.793 184.467C29.0742 183.963 29.2148 183.377 29.2148 182.709C29.2148 181.994 29.0742 181.385 28.793 180.881C28.5234 180.377 28.1602 179.961 27.7031 179.633C27.2344 179.316 26.6953 179.082 26.0859 178.93C25.4883 178.777 24.873 178.695 24.2402 178.684H19.793V186.822ZM36.5456 191.814C36.5456 190.443 36.7448 189.172 37.1433 188C37.5417 186.816 38.1159 185.791 38.8659 184.924C39.6042 184.057 40.5066 183.377 41.573 182.885C42.6394 182.381 43.8405 182.129 45.1765 182.129C46.5241 182.129 47.7312 182.381 48.7976 182.885C49.8757 183.377 50.7898 184.057 51.5398 184.924C52.278 185.791 52.8464 186.816 53.2448 188C53.6433 189.172 53.8425 190.443 53.8425 191.814V192.201C53.8425 193.572 53.6433 194.844 53.2448 196.016C52.8464 197.188 52.278 198.207 51.5398 199.074C50.7898 199.941 49.8816 200.621 48.8152 201.113C47.7488 201.605 46.5476 201.852 45.2116 201.852C43.864 201.852 42.6511 201.605 41.573 201.113C40.5066 200.621 39.6042 199.941 38.8659 199.074C38.1159 198.207 37.5417 197.188 37.1433 196.016C36.7448 194.844 36.5456 193.572 36.5456 192.201V191.814ZM39.7976 192.201C39.7976 193.139 39.9089 194.035 40.1316 194.891C40.3542 195.734 40.6941 196.479 41.1511 197.123C41.5964 197.768 42.1589 198.277 42.8386 198.652C43.5183 199.027 44.3093 199.215 45.2116 199.215C46.1023 199.215 46.8816 199.027 47.5495 198.652C48.2292 198.277 48.7976 197.768 49.2546 197.123C49.6999 196.479 50.0339 195.734 50.2566 194.891C50.4792 194.035 50.5905 193.139 50.5905 192.201V191.814C50.5905 190.889 50.4734 190.004 50.239 189.16C50.0163 188.305 49.6823 187.555 49.237 186.91C48.78 186.266 48.2116 185.756 47.532 185.381C46.864 184.994 46.0788 184.801 45.1765 184.801C44.2741 184.801 43.489 184.994 42.821 185.381C42.153 185.756 41.5964 186.266 41.1511 186.91C40.6941 187.555 40.3542 188.305 40.1316 189.16C39.9089 190.004 39.7976 190.889 39.7976 191.814V192.201ZM57.4467 191.814C57.4467 190.443 57.6459 189.172 58.0444 188C58.4428 186.816 59.017 185.791 59.767 184.924C60.5053 184.057 61.4077 183.377 62.4741 182.885C63.5405 182.381 64.7416 182.129 66.0776 182.129C67.4252 182.129 68.6323 182.381 69.6987 182.885C70.7768 183.377 71.6909 184.057 72.4409 184.924C73.1791 185.791 73.7475 186.816 74.1459 188C74.5444 189.172 74.7436 190.443 74.7436 191.814V192.201C74.7436 193.572 74.5444 194.844 74.1459 196.016C73.7475 197.188 73.1791 198.207 72.4409 199.074C71.6909 199.941 70.7827 200.621 69.7163 201.113C68.6498 201.605 67.4487 201.852 66.1127 201.852C64.7651 201.852 63.5522 201.605 62.4741 201.113C61.4077 200.621 60.5053 199.941 59.767 199.074C59.017 198.207 58.4428 197.188 58.0444 196.016C57.6459 194.844 57.4467 193.572 57.4467 192.201V191.814ZM60.6987 192.201C60.6987 193.139 60.81 194.035 61.0327 194.891C61.2553 195.734 61.5952 196.479 62.0522 197.123C62.4975 197.768 63.06 198.277 63.7397 198.652C64.4194 199.027 65.2104 199.215 66.1127 199.215C67.0034 199.215 67.7827 199.027 68.4506 198.652C69.1303 198.277 69.6987 197.768 70.1557 197.123C70.601 196.479 70.935 195.734 71.1577 194.891C71.3803 194.035 71.4916 193.139 71.4916 192.201V191.814C71.4916 190.889 71.3745 190.004 71.1401 189.16C70.9174 188.305 70.5834 187.555 70.1381 186.91C69.6811 186.266 69.1127 185.756 68.433 185.381C67.7651 184.994 66.9799 184.801 66.0776 184.801C65.1752 184.801 64.3901 184.994 63.7221 185.381C63.0541 185.756 62.4975 186.266 62.0522 186.91C61.5952 187.555 61.2553 188.305 61.0327 189.16C60.81 190.004 60.6987 190.889 60.6987 191.814V192.201ZM86.9611 177.875V182.48H94.2033V184.994H86.9611V195.33C86.9611 196.068 87.0548 196.678 87.2423 197.158C87.4298 197.639 87.6877 198.02 88.0158 198.301C88.3439 198.594 88.7189 198.799 89.1408 198.916C89.5744 199.033 90.0314 199.092 90.5119 199.092C90.8634 199.092 91.2267 199.074 91.6017 199.039C91.9767 198.992 92.3459 198.939 92.7091 198.881C93.0607 198.822 93.3888 198.764 93.6935 198.705C94.0099 198.635 94.2677 198.576 94.467 198.529L94.924 200.832C94.6545 200.996 94.3263 201.143 93.9396 201.271C93.5529 201.389 93.131 201.488 92.674 201.57C92.217 201.664 91.7306 201.734 91.215 201.781C90.7111 201.828 90.2072 201.852 89.7033 201.852C88.8595 201.852 88.0685 201.734 87.3302 201.5C86.6037 201.254 85.9709 200.867 85.4318 200.34C84.8927 199.824 84.465 199.156 84.1486 198.336C83.8439 197.504 83.6916 196.502 83.6916 195.33V184.994H78.6994V182.48H83.6916V177.875H86.9611ZM112.802 196.455C112.802 196.068 112.725 195.723 112.573 195.418C112.421 195.102 112.163 194.814 111.8 194.557C111.436 194.299 110.956 194.064 110.358 193.854C109.761 193.631 109.016 193.432 108.126 193.256C107.036 193.033 106.04 192.764 105.138 192.447C104.247 192.131 103.485 191.75 102.852 191.305C102.208 190.871 101.71 190.361 101.358 189.775C101.007 189.178 100.831 188.486 100.831 187.701C100.831 186.928 101.013 186.207 101.376 185.539C101.739 184.859 102.249 184.268 102.905 183.764C103.561 183.26 104.341 182.861 105.243 182.568C106.157 182.275 107.159 182.129 108.249 182.129C109.421 182.129 110.475 182.281 111.413 182.586C112.35 182.891 113.147 183.312 113.804 183.852C114.46 184.391 114.964 185.023 115.315 185.75C115.679 186.465 115.86 187.238 115.86 188.07H112.608C112.608 187.66 112.503 187.262 112.292 186.875C112.081 186.477 111.788 186.125 111.413 185.82C111.038 185.516 110.581 185.27 110.042 185.082C109.515 184.895 108.917 184.801 108.249 184.801C107.558 184.801 106.948 184.877 106.421 185.029C105.905 185.182 105.477 185.387 105.138 185.645C104.786 185.902 104.522 186.201 104.347 186.541C104.171 186.881 104.083 187.232 104.083 187.596C104.083 187.971 104.153 188.305 104.294 188.598C104.434 188.891 104.681 189.154 105.032 189.389C105.372 189.623 105.829 189.834 106.403 190.021C106.989 190.209 107.727 190.391 108.618 190.566C109.79 190.812 110.839 191.1 111.765 191.428C112.69 191.744 113.47 192.125 114.102 192.57C114.735 193.027 115.216 193.555 115.544 194.152C115.884 194.75 116.054 195.441 116.054 196.227C116.054 197.07 115.86 197.838 115.474 198.529C115.099 199.221 114.571 199.812 113.891 200.305C113.212 200.797 112.397 201.178 111.448 201.447C110.499 201.717 109.462 201.852 108.337 201.852C107.048 201.852 105.899 201.682 104.891 201.342C103.884 200.99 103.034 200.527 102.343 199.953C101.64 199.391 101.1 198.734 100.725 197.984C100.362 197.234 100.181 196.455 100.181 195.646H103.433C103.479 196.314 103.655 196.877 103.96 197.334C104.276 197.791 104.669 198.16 105.138 198.441C105.595 198.723 106.104 198.922 106.667 199.039C107.229 199.156 107.786 199.215 108.337 199.215C109.204 199.215 109.96 199.115 110.604 198.916C111.249 198.705 111.753 198.418 112.116 198.055C112.339 197.832 112.509 197.586 112.626 197.316C112.743 197.047 112.802 196.76 112.802 196.455ZM128.763 177.875V182.48H136.005V184.994H128.763V195.33C128.763 196.068 128.857 196.678 129.045 197.158C129.232 197.639 129.49 198.02 129.818 198.301C130.146 198.594 130.521 198.799 130.943 198.916C131.377 199.033 131.834 199.092 132.314 199.092C132.666 199.092 133.029 199.074 133.404 199.039C133.779 198.992 134.148 198.939 134.511 198.881C134.863 198.822 135.191 198.764 135.496 198.705C135.812 198.635 136.07 198.576 136.269 198.529L136.726 200.832C136.457 200.996 136.129 201.143 135.742 201.271C135.355 201.389 134.933 201.488 134.476 201.57C134.019 201.664 133.533 201.734 133.017 201.781C132.513 201.828 132.009 201.852 131.505 201.852C130.662 201.852 129.871 201.734 129.132 201.5C128.406 201.254 127.773 200.867 127.234 200.34C126.695 199.824 126.267 199.156 125.951 198.336C125.646 197.504 125.494 196.502 125.494 195.33V184.994H120.502V182.48H125.494V177.875H128.763ZM154.428 182.129C155.026 182.129 155.647 182.17 156.291 182.252C156.948 182.334 157.44 182.445 157.768 182.586L157.328 185.768C156.696 185.627 156.092 185.527 155.518 185.469C154.955 185.398 154.364 185.363 153.743 185.363C152.946 185.363 152.225 185.463 151.58 185.662C150.936 185.85 150.373 186.131 149.893 186.506C149.459 186.834 149.078 187.238 148.75 187.719C148.434 188.188 148.17 188.715 147.959 189.301V201.5H144.69V182.48H147.784L147.924 185.029L147.942 185.504C148.715 184.461 149.641 183.641 150.719 183.043C151.809 182.434 153.045 182.129 154.428 182.129ZM175.364 201.5C175.235 201.254 175.13 200.949 175.048 200.586C174.978 200.211 174.925 199.824 174.89 199.426C174.562 199.754 174.192 200.064 173.782 200.357C173.384 200.65 172.944 200.908 172.464 201.131C171.972 201.354 171.45 201.529 170.899 201.658C170.349 201.787 169.763 201.852 169.142 201.852C168.134 201.852 167.22 201.705 166.399 201.412C165.591 201.119 164.905 200.721 164.343 200.217C163.769 199.725 163.323 199.139 163.007 198.459C162.702 197.768 162.55 197.023 162.55 196.227C162.55 195.184 162.755 194.27 163.165 193.484C163.587 192.699 164.179 192.043 164.94 191.516C165.702 191 166.616 190.613 167.683 190.355C168.761 190.098 169.962 189.969 171.286 189.969H174.837V188.475C174.837 187.9 174.731 187.385 174.521 186.928C174.31 186.471 174.011 186.078 173.624 185.75C173.237 185.434 172.763 185.188 172.2 185.012C171.649 184.836 171.028 184.748 170.337 184.748C169.692 184.748 169.112 184.83 168.597 184.994C168.093 185.158 167.665 185.375 167.314 185.645C166.962 185.914 166.687 186.236 166.487 186.611C166.3 186.975 166.206 187.355 166.206 187.754H162.937C162.948 187.062 163.124 186.383 163.464 185.715C163.815 185.047 164.319 184.443 164.976 183.904C165.62 183.377 166.405 182.949 167.331 182.621C168.269 182.293 169.329 182.129 170.513 182.129C171.591 182.129 172.593 182.264 173.519 182.533C174.444 182.791 175.247 183.184 175.927 183.711C176.595 184.25 177.122 184.918 177.509 185.715C177.896 186.512 178.089 187.443 178.089 188.51V197.352C178.089 197.984 178.148 198.658 178.265 199.373C178.382 200.076 178.546 200.691 178.757 201.219V201.5H175.364ZM169.616 199.021C170.249 199.021 170.841 198.939 171.392 198.775C171.942 198.611 172.446 198.395 172.903 198.125C173.349 197.855 173.735 197.551 174.064 197.211C174.392 196.859 174.649 196.496 174.837 196.121V192.271H171.814C170.689 192.271 169.704 192.371 168.86 192.57C168.028 192.758 167.366 193.051 166.874 193.449C166.523 193.73 166.253 194.064 166.065 194.451C165.89 194.838 165.802 195.277 165.802 195.77C165.802 196.238 165.878 196.672 166.03 197.07C166.194 197.469 166.435 197.809 166.751 198.09C167.067 198.383 167.466 198.611 167.946 198.775C168.427 198.939 168.983 199.021 169.616 199.021ZM183.75 208.812V182.48H186.72L186.879 184.555C187.136 184.227 187.418 183.934 187.722 183.676C188.027 183.406 188.355 183.178 188.707 182.99C189.199 182.709 189.744 182.498 190.342 182.357C190.951 182.205 191.601 182.129 192.293 182.129C193.511 182.129 194.59 182.369 195.527 182.85C196.465 183.33 197.25 183.998 197.883 184.854C198.515 185.709 198.996 186.734 199.324 187.93C199.652 189.113 199.816 190.414 199.816 191.832V192.201C199.816 193.561 199.652 194.832 199.324 196.016C198.996 197.188 198.515 198.207 197.883 199.074C197.25 199.941 196.465 200.621 195.527 201.113C194.601 201.605 193.541 201.852 192.345 201.852C191.619 201.852 190.939 201.775 190.306 201.623C189.685 201.471 189.123 201.254 188.619 200.973C188.314 200.797 188.027 200.604 187.758 200.393C187.488 200.17 187.236 199.93 187.002 199.672V208.812H183.75ZM196.564 191.832C196.564 190.906 196.459 190.027 196.248 189.195C196.049 188.352 195.738 187.607 195.316 186.963C194.883 186.33 194.338 185.826 193.681 185.451C193.025 185.076 192.24 184.889 191.326 184.889C190.822 184.889 190.353 184.947 189.92 185.064C189.498 185.182 189.117 185.352 188.777 185.574C188.402 185.797 188.068 186.072 187.775 186.4C187.482 186.729 187.224 187.092 187.002 187.49V196.648C187.201 197 187.429 197.328 187.687 197.633C187.945 197.938 188.238 198.195 188.566 198.406C188.941 198.652 189.357 198.846 189.814 198.986C190.283 199.127 190.799 199.197 191.361 199.197C192.263 199.197 193.043 199.01 193.699 198.635C194.355 198.248 194.894 197.732 195.316 197.088C195.738 196.443 196.049 195.699 196.248 194.855C196.459 194.012 196.564 193.127 196.564 192.201V191.832Z" fill="#7D12F9"/>
<defs>
<filter id="filter0_d_511_83" x="61.7554" y="33.2644" width="95.8418" height="115.439" filterUnits="userSpaceOnUse" color-interpolation-filters="sRGB">
<feFlood flood-opacity="0" result="BackgroundImageFix"/>
<feColorMatrix in="SourceAlpha" type="matrix" values="0 0 0 0 0 0 0 0 0 0 0 0 0 0 0 0 0 0 127 0" result="hardAlpha"/>
<feOffset dy="4"/>
<feGaussianBlur stdDeviation="8"/>
<feColorMatrix type="matrix" values="0 0 0 0 0 0 0 0 0 0 0 0 0 0 0 0 0 0 0.15 0"/>
<feBlend mode="normal" in2="BackgroundImageFix" result="effect1_dropShadow_511_83"/>
<feBlend mode="normal" in="SourceGraphic" in2="effect1_dropShadow_511_83" result="shape"/>
</filter>
<linearGradient id="paint0_linear_511_83" x1="39.4754" y1="13.6022" x2="209.541" y2="148.94" gradientUnits="userSpaceOnUse">
<stop stop-color="#9013FE"/>
<stop offset="1" stop-color="#6610F2"/>
</linearGradient>
<linearGradient id="paint1_linear_511_83" x1="84.1994" y1="51.1905" x2="122.146" y2="115.528" gradientUnits="userSpaceOnUse">
<stop stop-color="white"/>
<stop offset="1" stop-color="#F1E5FC"/>
</linearGradient>
<clipPath id="clip0_511_83">
<rect width="195" height="155" fill="white" transform="translate(10.5 9.5)"/>
</clipPath>
</defs>
</svg>
