<svg width="100" height="100" viewBox="0 0 100 100" fill="none" xmlns="http://www.w3.org/2000/svg">
<rect width="100" height="100" fill="#F0F5F9"/>
<path d="M9.29125 39H5.6975C5.59334 39 5.54125 38.9479 5.54125 38.8438L5.60375 16.8594C5.60375 16.776 5.64542 16.7344 5.72875 16.7344H15.9788C16.0829 16.7344 16.135 16.776 16.135 16.8594V20.4688C16.135 20.5521 16.0933 20.5938 16.01 20.5938H9.4475V25.5625H16.01C16.0933 25.5625 16.135 25.6146 16.135 25.7188L16.1663 29.3438C16.1663 29.4271 16.1142 29.4688 16.01 29.4688H9.4475V38.8438C9.4475 38.9479 9.39542 39 9.29125 39ZM28.7706 39.3125C27.6352 39.3125 26.5883 39.0208 25.63 38.4375C24.6821 37.8542 23.9165 37.0781 23.3331 36.1094C22.7602 35.1302 22.4738 34.0573 22.4738 32.8906L22.505 22.75C22.505 21.5625 22.7915 20.4948 23.3644 19.5469C23.9269 18.5885 24.6873 17.8229 25.6456 17.25C26.604 16.6667 27.6456 16.375 28.7706 16.375C29.9373 16.375 30.9842 16.6615 31.9113 17.2344C32.8488 17.8073 33.5988 18.5781 34.1613 19.5469C34.7342 20.5052 35.0206 21.5729 35.0206 22.75L35.0519 32.8906C35.0519 34.0573 34.7706 35.125 34.2081 36.0938C33.6352 37.0729 32.8748 37.8542 31.9269 38.4375C30.979 39.0208 29.9269 39.3125 28.7706 39.3125ZM28.7706 35.4531C29.4165 35.4531 29.979 35.1927 30.4581 34.6719C30.9373 34.1406 31.1769 33.5469 31.1769 32.8906L31.1456 22.75C31.1456 22.0417 30.9217 21.4427 30.4738 20.9531C30.0258 20.4635 29.4581 20.2188 28.7706 20.2188C28.1144 20.2188 27.5519 20.4583 27.0831 20.9375C26.6144 21.4167 26.38 22.0208 26.38 22.75V32.8906C26.38 33.5885 26.6144 34.1927 27.0831 34.7031C27.5519 35.2031 28.1144 35.4531 28.7706 35.4531ZM48.4844 39.3125C47.3281 39.3125 46.2708 39.0208 45.3125 38.4375C44.3646 37.8542 43.6094 37.0729 43.0469 36.0938C42.4948 35.1042 42.2188 34.0052 42.2188 32.7969L42.25 22.8125C42.25 21.625 42.5208 20.5521 43.0625 19.5938C43.6042 18.625 44.349 17.849 45.2969 17.2656C46.2552 16.6719 47.3177 16.375 48.4844 16.375C49.6719 16.375 50.7292 16.6615 51.6562 17.2344C52.5938 17.8073 53.3385 18.5833 53.8906 19.5625C54.4531 20.5312 54.7344 21.6146 54.7344 22.8125V24.2812C54.7344 24.3646 54.6927 24.4062 54.6094 24.4062H51.0156C50.9323 24.4062 50.8906 24.3646 50.8906 24.2812V22.8125C50.8906 22.1042 50.6615 21.4948 50.2031 20.9844C49.7448 20.474 49.1719 20.2188 48.4844 20.2188C47.724 20.2188 47.1406 20.4792 46.7344 21C46.3281 21.5208 46.125 22.125 46.125 22.8125V32.7969C46.125 33.5781 46.3542 34.2188 46.8125 34.7188C47.2708 35.2083 47.8281 35.4531 48.4844 35.4531C49.1719 35.4531 49.7448 35.1823 50.2031 34.6406C50.6615 34.0885 50.8906 33.474 50.8906 32.7969V31.3125C50.8906 31.2292 50.9323 31.1875 51.0156 31.1875H54.6406C54.724 31.1875 54.7656 31.2292 54.7656 31.3125V32.7969C54.7656 33.9948 54.4844 35.0885 53.9219 36.0781C53.349 37.0573 52.5938 37.8438 51.6562 38.4375C50.7188 39.0208 49.6615 39.3125 48.4844 39.3125ZM68.1044 39.3125C66.9794 39.3125 65.9377 39.0208 64.9794 38.4375C64.021 37.8542 63.2554 37.0729 62.6825 36.0938C62.12 35.1042 61.8388 34.026 61.8388 32.8594L61.9013 16.8594C61.9013 16.776 61.9429 16.7344 62.0263 16.7344H65.62C65.7033 16.7344 65.745 16.776 65.745 16.8594V32.8594C65.745 33.5781 65.9742 34.1927 66.4325 34.7031C66.8908 35.2031 67.4481 35.4531 68.1044 35.4531C68.7919 35.4531 69.3648 35.2031 69.8231 34.7031C70.2815 34.1927 70.5106 33.5781 70.5106 32.8594V16.8594C70.5106 16.776 70.5523 16.7344 70.6356 16.7344H74.2294C74.3127 16.7344 74.3544 16.776 74.3544 16.8594L74.4169 32.8594C74.4169 34.0365 74.1356 35.1198 73.5731 36.1094C73.0002 37.0885 72.2398 37.8698 71.2919 38.4531C70.344 39.026 69.2815 39.3125 68.1044 39.3125ZM87.49 39.3125C86.3546 39.3125 85.3077 39.0208 84.3494 38.4375C83.4015 37.8542 82.641 37.0781 82.0681 36.1094C81.5056 35.1302 81.2244 34.0573 81.2244 32.8906V31.4219C81.2244 31.3073 81.2765 31.25 81.3806 31.25H84.9744C85.0577 31.25 85.0994 31.3073 85.0994 31.4219V32.8906C85.0994 33.5885 85.3337 34.1927 85.8025 34.7031C86.2712 35.2031 86.8337 35.4531 87.49 35.4531C88.1567 35.4531 88.7244 35.1979 89.1931 34.6875C89.6619 34.1667 89.8962 33.5677 89.8962 32.8906C89.8962 32.1094 89.3858 31.4271 88.365 30.8438C88.1983 30.7396 87.9796 30.6146 87.7087 30.4688C87.4483 30.3125 87.1358 30.1354 86.7712 29.9375C86.4067 29.7396 86.0525 29.5469 85.7087 29.3594C85.365 29.1615 85.0317 28.974 84.7087 28.7969C83.5421 28.1094 82.6723 27.25 82.0994 26.2188C81.5369 25.1771 81.2556 24.0104 81.2556 22.7188C81.2556 21.5312 81.5473 20.4583 82.1306 19.5C82.714 18.5521 83.4744 17.8021 84.4119 17.25C85.3598 16.6875 86.3858 16.4062 87.49 16.4062C88.6254 16.4062 89.6671 16.6875 90.615 17.25C91.5629 17.8229 92.3181 18.5833 92.8806 19.5312C93.4535 20.4792 93.74 21.5417 93.74 22.7188V25.3438C93.74 25.4271 93.6983 25.4688 93.615 25.4688H90.0212C89.9379 25.4688 89.8962 25.4271 89.8962 25.3438L89.865 22.7188C89.865 21.9688 89.6306 21.3594 89.1619 20.8906C88.6931 20.4219 88.1358 20.1875 87.49 20.1875C86.8337 20.1875 86.2712 20.4375 85.8025 20.9375C85.3337 21.4375 85.0994 22.0312 85.0994 22.7188C85.0994 23.4167 85.2452 24 85.5369 24.4688C85.839 24.9375 86.3858 25.3854 87.1775 25.8125C87.2608 25.8542 87.4535 25.9583 87.7556 26.125C88.0577 26.2917 88.391 26.4792 88.7556 26.6875C89.1306 26.8854 89.4692 27.0677 89.7712 27.2344C90.0733 27.3906 90.2556 27.4844 90.3181 27.5156C91.3806 28.1094 92.2192 28.8385 92.8337 29.7031C93.4587 30.5677 93.7712 31.6302 93.7712 32.8906C93.7712 34.1094 93.49 35.2031 92.9275 36.1719C92.3546 37.1406 91.5942 37.9062 90.6462 38.4688C89.6983 39.0312 88.6462 39.3125 87.49 39.3125Z" fill="black"/>
<path d="M16.3781 86H12.7531C12.6698 86 12.6281 85.9479 12.6281 85.8438L12.6906 63.8594C12.6906 63.776 12.7323 63.7344 12.8156 63.7344H19.2844C20.4406 63.7344 21.5031 64.0156 22.4719 64.5781C23.4406 65.1406 24.2115 65.8958 24.7844 66.8438C25.3677 67.7917 25.6594 68.8646 25.6594 70.0625C25.6594 70.8438 25.5396 71.5521 25.3 72.1875C25.0604 72.8229 24.7792 73.3594 24.4562 73.7969C24.1437 74.2344 23.8573 74.5573 23.5969 74.7656C24.7531 76.0469 25.3312 77.5521 25.3312 79.2812L25.3625 85.8438C25.3625 85.9479 25.3104 86 25.2062 86H21.5812C21.4979 86 21.4562 85.9688 21.4562 85.9062V79.2812C21.4562 78.5104 21.1854 77.8438 20.6437 77.2812C20.1021 76.7188 19.4354 76.4375 18.6437 76.4375H16.5344L16.5031 85.8438C16.5031 85.9479 16.4615 86 16.3781 86ZM19.2844 67.5625H16.5344V72.5938H19.2844C19.9406 72.5938 20.524 72.349 21.0344 71.8594C21.5552 71.3698 21.8156 70.7708 21.8156 70.0625C21.8156 69.3854 21.5656 68.8021 21.0656 68.3125C20.5656 67.8125 19.9719 67.5625 19.2844 67.5625ZM38.7875 86.3125C37.6521 86.3125 36.6052 86.0208 35.6469 85.4375C34.699 84.8542 33.9333 84.0781 33.35 83.1094C32.7771 82.1302 32.4906 81.0573 32.4906 79.8906L32.5219 69.75C32.5219 68.5625 32.8083 67.4948 33.3812 66.5469C33.9437 65.5885 34.7042 64.8229 35.6625 64.25C36.6208 63.6667 37.6625 63.375 38.7875 63.375C39.9542 63.375 41.001 63.6615 41.9281 64.2344C42.8656 64.8073 43.6156 65.5781 44.1781 66.5469C44.751 67.5052 45.0375 68.5729 45.0375 69.75L45.0687 79.8906C45.0687 81.0573 44.7875 82.125 44.225 83.0938C43.6521 84.0729 42.8917 84.8542 41.9437 85.4375C40.9958 86.0208 39.9437 86.3125 38.7875 86.3125ZM38.7875 82.4531C39.4333 82.4531 39.9958 82.1927 40.475 81.6719C40.9542 81.1406 41.1937 80.5469 41.1937 79.8906L41.1625 69.75C41.1625 69.0417 40.9385 68.4427 40.4906 67.9531C40.0427 67.4635 39.475 67.2188 38.7875 67.2188C38.1312 67.2188 37.5687 67.4583 37.1 67.9375C36.6312 68.4167 36.3969 69.0208 36.3969 69.75V79.8906C36.3969 80.5885 36.6312 81.1927 37.1 81.7031C37.5687 82.2031 38.1312 82.4531 38.7875 82.4531ZM58.2125 86.3125C57.0771 86.3125 56.0302 86.0208 55.0719 85.4375C54.124 84.8542 53.3583 84.0781 52.775 83.1094C52.2021 82.1302 51.9156 81.0573 51.9156 79.8906L51.9469 69.75C51.9469 68.5625 52.2333 67.4948 52.8062 66.5469C53.3687 65.5885 54.1292 64.8229 55.0875 64.25C56.0458 63.6667 57.0875 63.375 58.2125 63.375C59.3792 63.375 60.426 63.6615 61.3531 64.2344C62.2906 64.8073 63.0406 65.5781 63.6031 66.5469C64.176 67.5052 64.4625 68.5729 64.4625 69.75L64.4937 79.8906C64.4937 81.0573 64.2125 82.125 63.65 83.0938C63.0771 84.0729 62.3167 84.8542 61.3687 85.4375C60.4208 86.0208 59.3687 86.3125 58.2125 86.3125ZM58.2125 82.4531C58.8583 82.4531 59.4208 82.1927 59.9 81.6719C60.3792 81.1406 60.6187 80.5469 60.6187 79.8906L60.5875 69.75C60.5875 69.0417 60.3635 68.4427 59.9156 67.9531C59.4677 67.4635 58.9 67.2188 58.2125 67.2188C57.5562 67.2188 56.9937 67.4583 56.525 67.9375C56.0562 68.4167 55.8219 69.0208 55.8219 69.75V79.8906C55.8219 80.5885 56.0562 81.1927 56.525 81.7031C56.9937 82.2031 57.5562 82.4531 58.2125 82.4531ZM75.4656 86H71.8406C71.7573 86 71.7156 85.9479 71.7156 85.8438L71.7781 63.8594C71.7781 63.776 71.8198 63.7344 71.9031 63.7344H75.8094C75.8927 63.7344 75.9656 63.776 76.0281 63.8594L78.95 68.0781L81.8563 63.8594C81.9188 63.776 81.9969 63.7344 82.0906 63.7344H86.0125C86.1063 63.7344 86.1531 63.776 86.1531 63.8594L86.2156 85.8438C86.2156 85.9479 86.174 86 86.0906 86H82.4656C82.3823 86 82.3406 85.9479 82.3406 85.8438L82.3094 69.5156L78.95 74.3906L75.6219 69.5156L75.5906 85.8438C75.5906 85.9479 75.549 86 75.4656 86Z" fill="black"/>
</svg>
