<svg width="396" height="396" viewBox="0 0 396 396" fill="none" xmlns="http://www.w3.org/2000/svg">
<rect width="396" height="396" fill="#FAFAFA"/>
<path d="M18 135V260.967H27.7554V205.162H86.429V193.944H26.1002" stroke="#222222" stroke-width="4.3" stroke-linecap="round" stroke-linejoin="round"/>
<path d="M24.5869 136.058H86.9584" stroke="#222222" stroke-width="4.3" stroke-linecap="round" stroke-linejoin="round"/>
<path d="M310.345 154.861V260.968" stroke="#222222" stroke-width="4.3" stroke-linecap="round" stroke-linejoin="round"/>
<path d="M315.628 156.164C315.628 156.164 373.069 144.276 377.999 186.924" stroke="#222222" stroke-width="4.3" stroke-linecap="round" stroke-linejoin="round"/>
<path d="M378 194.188C378 194.188 377.683 228.229 323.201 221.632C323.201 221.632 317.918 218.987 318.904 215.036C318.904 215.036 319.221 210.062 324.856 211.085C324.856 211.085 348.628 214.401 360.849 206.782" stroke="#222222" stroke-width="4.3" stroke-linecap="round" stroke-linejoin="round"/>
<path d="M154.293 246.294C173.14 246.294 188.419 230.99 188.419 212.112C188.419 193.234 173.14 177.931 154.293 177.931C135.445 177.931 120.167 193.234 120.167 212.112C120.167 230.99 135.445 246.294 154.293 246.294Z" stroke="#2D8F99" stroke-width="4.3" stroke-miterlimit="10"/>
<path d="M154.294 230.558C164.466 230.558 172.713 222.298 172.713 212.109C172.713 201.92 164.466 193.661 154.294 193.661C144.121 193.661 135.875 201.92 135.875 212.109C135.875 222.298 144.121 230.558 154.294 230.558Z" stroke="#23727B" stroke-width="4.3" stroke-miterlimit="10"/>
<path d="M238.922 163.289C220.784 163.289 205.007 173.236 196.59 187.946C188.172 173.236 172.395 163.289 154.257 163.289C127.315 163.289 105.48 185.159 105.48 212.144C105.48 239.13 127.315 261 154.257 261C172.395 261 188.172 251.053 196.59 236.343C205.007 251.053 220.784 261 238.922 261C265.864 261 287.699 239.13 287.699 212.144C287.699 185.159 265.864 163.289 238.922 163.289Z" stroke="#35B4C7" stroke-width="4.3" stroke-miterlimit="10"/>
<path d="M238.922 246.294C257.77 246.294 273.049 230.99 273.049 212.112C273.049 193.234 257.77 177.931 238.922 177.931C220.075 177.931 204.796 193.234 204.796 212.112C204.796 230.99 220.075 246.294 238.922 246.294Z" stroke="#2D8F99" stroke-width="4.3" stroke-miterlimit="10"/>
<path d="M238.924 230.558C249.096 230.558 257.343 222.298 257.343 212.109C257.343 201.92 249.096 193.661 238.924 193.661C228.751 193.661 220.504 201.92 220.504 212.109C220.504 222.298 228.751 230.558 238.924 230.558Z" stroke="#23727B" stroke-width="4.3" stroke-miterlimit="10"/>
<path d="M247.164 155.741C250.821 155.741 253.785 152.772 253.785 149.11C253.785 145.447 250.821 142.478 247.164 142.478C243.507 142.478 240.543 145.447 240.543 149.11C240.543 152.772 243.507 155.741 247.164 155.741Z" fill="#222222"/>
<path d="M144.295 155.741C147.952 155.741 150.916 152.772 150.916 149.11C150.916 145.447 147.952 142.478 144.295 142.478C140.638 142.478 137.674 145.447 137.674 149.11C137.674 152.772 140.638 155.741 144.295 155.741Z" fill="#222222"/>
</svg>
