<svg width="400" height="400" viewBox="0 0 400 400" fill="none" xmlns="http://www.w3.org/2000/svg">
<rect width="400" height="200" fill="#00473E"/>
<rect y="200" width="400" height="200" fill="#FE8402"/>
<path d="M106.048 171.672C105.856 173.208 105.664 175.896 105.6 177.432C104.896 202.84 98.88 215.832 84.736 225.88L77.248 219.864C79.936 218.392 83.136 216.28 85.696 213.656C94.08 205.336 97.024 194.456 97.088 177.56C97.088 176.152 96.832 173.208 96.576 171.672H106.048ZM127.744 185.432C127.552 186.456 127.36 188.056 127.36 188.76C127.104 195.736 126.272 213.592 123.52 220.12C122.176 223.32 119.68 225.048 115.328 225.048C111.616 225.048 107.84 224.728 104.704 224.472L103.68 215.96C106.88 216.472 110.144 216.856 112.704 216.856C114.752 216.856 115.648 216.152 116.288 214.552C118.144 210.52 119.04 197.72 119.04 190.808H87.808C85.632 190.808 82.048 190.872 79.36 191.128V182.68C82.048 183 85.312 183.128 87.744 183.128H117.376C119.04 183.128 120.704 183 122.24 182.68L127.744 185.432ZM187.392 176.088C187.392 178.136 189.056 179.8 191.104 179.8C193.152 179.8 194.816 178.136 194.816 176.088C194.816 174.04 193.152 172.376 191.104 172.376C189.056 172.376 187.392 174.04 187.392 176.088ZM183.424 176.088C183.424 171.864 186.88 168.408 191.104 168.408C195.328 168.408 198.784 171.864 198.784 176.088C198.784 180.312 195.328 183.768 191.104 183.768C186.88 183.768 183.424 180.312 183.424 176.088ZM191.232 181.144C190.592 182.36 190.144 184.216 189.824 185.56C188.352 191.832 185.536 201.816 180.16 208.92C174.4 216.6 165.888 222.936 154.432 226.584L147.456 218.904C160.192 215.96 167.424 210.392 172.544 203.928C176.832 198.616 179.264 191.32 180.096 185.816C176.192 185.816 155.072 185.816 150.272 185.816C147.328 185.816 144.32 186.008 142.656 186.136V177.048C144.576 177.304 148.16 177.624 150.272 177.624C155.072 177.624 176.32 177.624 179.904 177.624C181.184 177.624 183.232 177.56 184.896 177.112L191.232 181.144ZM209.984 177.56C212.416 177.816 215.68 178.008 217.92 178.008H250.176C252.032 178.008 254.656 177.88 255.744 177.816C255.68 179.352 255.552 181.848 255.552 183.768V216.92C255.552 219.16 255.744 222.488 255.872 224.472H246.592C246.656 222.552 246.72 220.248 246.72 217.88V186.264H217.92C215.232 186.264 211.776 186.392 209.984 186.52V177.56ZM209.216 212.312C211.392 212.504 214.272 212.696 217.152 212.696H251.776V221.144H217.408C214.912 221.144 211.328 221.272 209.216 221.528V212.312ZM276.48 220.504C277.184 218.904 277.312 217.816 277.312 216.344C277.312 211.48 277.312 188.76 277.312 181.592C277.312 179.224 276.928 176.152 276.544 174.36H286.592C286.272 176.792 286.016 179.16 286.016 181.592C286.016 188.696 286.016 210.008 286.016 214.872C296.448 211.928 310.72 203.736 318.912 193.688L323.456 200.984C314.688 211.416 301.376 219.096 286.272 224.024C285.44 224.28 284.032 224.728 282.496 225.752L276.48 220.504Z" fill="#F2F7F5"/>
</svg>
