<svg width="45" height="45" viewBox="0 0 45 45" fill="none" xmlns="http://www.w3.org/2000/svg">
<circle cx="22.5" cy="22.5" r="22.5" fill="#1583FE"/>
<path d="M22 30H24V25.825L25.6 27.425L27 26L23 22L19 26L20.425 27.4L22 25.825V30ZM17 33C16.45 33 15.9792 32.8042 15.5875 32.4125C15.1958 32.0208 15 31.55 15 31V15C15 14.45 15.1958 13.9792 15.5875 13.5875C15.9792 13.1958 16.45 13 17 13H25L31 19V31C31 31.55 30.8042 32.0208 30.4125 32.4125C30.0208 32.8042 29.55 33 29 33H17ZM24 20V15H17V31H29V20H24Z" fill="white"/>
</svg>
